<svg width="40" height="40" viewBox="0 0 40 40" fill="none" xmlns="http://www.w3.org/2000/svg">
<path d="M27.5 5C27.5 3.61929 28.6193 2.5 30 2.5H35C36.3807 2.5 37.5 3.61929 37.5 5V35H38.75C39.4404 35 40 35.5596 40 36.25C40 36.9404 39.4404 37.5 38.75 37.5H1.25C0.559644 37.5 0 36.9404 0 36.25C0 35.5596 0.559644 35 1.25 35H2.5V27.5C2.5 26.1193 3.61929 25 5 25H10C11.3807 25 12.5 26.1193 12.5 27.5V35H15V17.5C15 16.1193 16.1193 15 17.5 15H22.5C23.8807 15 25 16.1193 25 17.5V35H27.5V5ZM30 35H35V5H30V35ZM22.5 35V17.5H17.5V35H22.5ZM10 35V27.5H5V35H10Z" fill="#CC0097"/>
</svg>
