<svg width="42" height="42" fill="none" xmlns="http://www.w3.org/2000/svg"><path fill-rule="evenodd" clip-rule="evenodd" d="M21 39.375c10.148 0 18.375-8.227 18.375-18.375S31.148 2.625 21 2.625 2.625 10.852 2.625 21 10.852 39.375 21 39.375ZM21 42c11.598 0 21-9.402 21-21S32.598 0 21 0 0 9.402 0 21s9.402 21 21 21Z" fill="#DC9FF2"/><path fill-rule="evenodd" clip-rule="evenodd" d="M21 35.438c7.974 0 14.438-6.464 14.438-14.438S28.974 6.562 21 6.562 6.562 13.027 6.562 21 13.027 35.438 21 35.438Zm0 1.312c8.698 0 15.75-7.052 15.75-15.75S29.698 5.25 21 5.25 5.25 12.302 5.25 21 12.302 36.75 21 36.75Z" fill="#DC9FF2"/><path d="M16.985 30.1V11.2h4.939c2.293 0 3.992.468 5.095 1.403 1.12.935 1.681 2.294 1.681 4.076 0 1.2-.271 2.233-.814 3.097-.543.848-1.348 1.5-2.417 1.96-1.05.458-2.355.688-3.913.688h-2.207V30.1h-2.364ZM14.7 26.5v-1.72h8.983v1.72H14.7Zm0-4.076v-2.012h6.015v2.012H14.7Zm6.514-2.012c1.068 0 1.97-.115 2.706-.344.753-.23 1.33-.61 1.733-1.139s.604-1.253.604-2.17c0-1.2-.367-2.091-1.103-2.674-.735-.582-1.882-.873-3.44-.873h-2.365v7.2h1.865Z" fill="#DC9FF2"/></svg>