<svg width="332" height="338" viewBox="0 0 332 338" fill="none" xmlns="http://www.w3.org/2000/svg">
<path d="M4.99984 184.578C4.99984 85.4 85.4422 5 184.673 5" stroke="#E5D6FF" stroke-width="10"/>
<path d="M32.0977 175.158C32.0977 257.102 98.5616 323.531 180.549 323.531C262.536 323.531 329 257.102 329 175.158C329 93.2137 262.536 26.7848 180.549 26.7848" stroke="#B5D9FC" stroke-width="5" stroke-linecap="round"/>
<path d="M91.8433 201.822C73.1622 201.822 58.0181 187.022 58.0181 168.766C58.0181 150.509 73.1622 135.71 91.8433 135.71" stroke="#A6D3FF" stroke-width="10" stroke-linecap="square"/>
<path d="M264.789 195.177C264.789 199.741 269.332 203.441 274.937 203.441C280.541 203.441 285.084 199.741 285.084 195.177" stroke="#A6D3FF" stroke-width="5"/>
<path d="M297.778 195.177C297.778 207.533 287.361 217.55 274.509 217.55C261.658 217.55 251.24 207.533 251.24 195.177" stroke="#A6D3FF" stroke-width="10"/>
<path d="M182.317 88.6071H235.686V99.1249H182.317V88.6071Z" fill="#A6D3FF"/>
<path d="M263.826 126.289H275.101V167.609H263.826V126.289Z" fill="#A6D3FF"/>
<path fill-rule="evenodd" clip-rule="evenodd" d="M209.696 337.343C208.758 336.441 208.729 334.95 209.631 334.013L222.788 320.337L209.631 306.661C208.729 305.723 208.758 304.232 209.696 303.331C210.634 302.429 212.126 302.458 213.028 303.396L226.97 317.888C228.285 319.256 228.285 321.418 226.97 322.785L213.028 337.277C212.126 338.215 210.634 338.244 209.696 337.343ZM189.078 337.343C188.14 336.441 188.11 334.95 189.012 334.013L202.169 320.337L189.012 306.661C188.11 305.723 188.14 304.232 189.078 303.331C190.016 302.429 191.508 302.458 192.41 303.396L206.352 317.888C207.667 319.256 207.667 321.418 206.352 322.785L192.41 337.277C191.507 338.215 190.016 338.244 189.078 337.343ZM168.394 334.013C167.492 334.95 167.521 336.441 168.46 337.343C169.398 338.244 170.889 338.215 171.791 337.277L185.733 322.785C187.049 321.418 187.049 319.256 185.733 317.888L171.791 303.396C170.889 302.458 169.398 302.429 168.46 303.331C167.521 304.232 167.492 305.723 168.394 306.661L181.551 320.337L168.394 334.013ZM147.841 337.343C146.903 336.441 146.874 334.95 147.776 334.013L160.933 320.337L147.776 306.661C146.874 305.723 146.903 304.232 147.841 303.331C148.779 302.429 150.271 302.458 151.173 303.396L165.115 317.888C166.431 319.256 166.431 321.418 165.115 322.785L151.173 337.277C150.271 338.215 148.779 338.244 147.841 337.343ZM127.158 334.013C126.256 334.95 126.285 336.441 127.223 337.343C128.161 338.244 129.653 338.215 130.555 337.277L144.497 322.785C145.813 321.418 145.813 319.256 144.497 317.888L130.555 303.396C129.653 302.458 128.161 302.429 127.223 303.331C126.285 304.232 126.256 305.723 127.158 306.661L140.315 320.337L127.158 334.013Z" fill="#E5D6FF"/>
<path d="M119.271 88.6741H108.438C108.391 88.6741 108.353 88.7122 108.353 88.7593V158.87C108.353 158.917 108.391 158.955 108.438 158.955H119.271C119.318 158.955 119.357 158.917 119.357 158.87V88.7593C119.357 88.7122 119.318 88.6741 119.271 88.6741Z" fill="#005FBB"/>
<path d="M163.515 88.6927V147.937C163.515 147.949 163.518 147.961 163.522 147.972C163.527 147.983 163.534 147.993 163.543 148.001C163.552 148.009 163.563 148.015 163.574 148.019C163.586 148.023 163.598 148.024 163.61 148.023H174.434C174.457 148.023 174.478 148.014 174.494 147.998C174.51 147.982 174.519 147.96 174.519 147.937V88.6927C174.519 88.6701 174.51 88.6484 174.494 88.6324C174.478 88.6165 174.457 88.6075 174.434 88.6075H163.61C163.598 88.6061 163.586 88.6073 163.574 88.611C163.563 88.6147 163.552 88.6208 163.543 88.6288C163.534 88.6369 163.527 88.6467 163.522 88.6577C163.518 88.6688 163.515 88.6807 163.515 88.6927Z" fill="#005FBB"/>
<path d="M229.559 106.445H218.725C218.678 106.445 218.64 106.483 218.64 106.53V158.869C218.64 158.916 218.678 158.954 218.725 158.954H229.559C229.606 158.954 229.644 158.916 229.644 158.869V106.53C229.644 106.483 229.606 106.445 229.559 106.445Z" fill="#005FBB"/>
<path d="M240.513 214.135H229.68C229.633 214.135 229.595 214.173 229.595 214.221V265.745C229.595 265.792 229.633 265.83 229.68 265.83H240.513C240.561 265.83 240.599 265.792 240.599 265.745V214.221C240.599 214.173 240.561 214.135 240.513 214.135Z" fill="#005FBB"/>
<path d="M136.057 225.351H146.834C146.856 225.351 146.878 225.36 146.894 225.376C146.91 225.392 146.919 225.414 146.919 225.437V265.707C146.919 265.732 146.909 265.756 146.891 265.774C146.874 265.791 146.849 265.801 146.824 265.801H136.048C136.025 265.801 136.003 265.792 135.987 265.776C135.971 265.76 135.962 265.739 135.962 265.716V225.446C135.962 225.421 135.972 225.397 135.99 225.379C136.008 225.361 136.032 225.351 136.057 225.351Z" fill="#005FBB"/>
<path d="M166.179 225.351H155.346C155.298 225.351 155.26 225.39 155.26 225.437V253.325C155.26 253.372 155.298 253.411 155.346 253.411H166.179C166.226 253.411 166.264 253.372 166.264 253.325V225.437C166.264 225.39 166.226 225.351 166.179 225.351Z" fill="#005FBB"/>
<path d="M174.643 225.351H185.467C185.49 225.351 185.511 225.36 185.527 225.376C185.543 225.392 185.552 225.414 185.552 225.437V265.707C185.552 265.732 185.542 265.756 185.524 265.774C185.507 265.791 185.483 265.801 185.457 265.801H174.643C174.62 265.801 174.599 265.792 174.583 265.776C174.567 265.76 174.558 265.739 174.558 265.716V225.446C174.558 225.422 174.566 225.4 174.582 225.382C174.598 225.365 174.619 225.354 174.643 225.351Z" fill="#005FBB"/>
<path d="M108.438 236.122H119.262C119.285 236.122 119.307 236.113 119.323 236.097C119.339 236.081 119.348 236.059 119.348 236.037V207.239C119.347 207.227 119.35 207.215 119.355 207.204C119.36 207.193 119.367 207.183 119.376 207.175C119.385 207.167 119.395 207.161 119.407 207.157C119.418 207.153 119.43 207.152 119.442 207.153H125.385C125.408 207.153 125.429 207.144 125.445 207.128C125.461 207.112 125.47 207.091 125.47 207.068V196.25C125.472 196.238 125.47 196.226 125.467 196.214C125.463 196.203 125.457 196.192 125.449 196.183C125.441 196.174 125.431 196.167 125.42 196.162C125.409 196.158 125.397 196.155 125.385 196.155H119.442C119.43 196.156 119.418 196.155 119.407 196.152C119.395 196.148 119.385 196.142 119.376 196.134C119.367 196.126 119.36 196.116 119.355 196.105C119.35 196.094 119.347 196.082 119.348 196.07V184.162C119.309 182.337 119.905 180.555 121.033 179.119C122.162 177.684 123.753 176.684 125.537 176.29C126.635 176.081 127.767 176.115 128.851 176.39C129.935 176.665 130.946 177.173 131.812 177.88C132.678 178.587 133.379 179.475 133.865 180.482C134.352 181.489 134.611 182.59 134.626 183.707C134.626 183.73 134.635 183.752 134.651 183.768C134.667 183.784 134.689 183.793 134.711 183.793H145.535C145.548 183.794 145.561 183.793 145.573 183.789C145.586 183.784 145.597 183.777 145.606 183.768C145.615 183.759 145.622 183.748 145.626 183.736C145.63 183.724 145.632 183.711 145.63 183.698C145.615 181.159 145.081 178.65 144.061 176.325C143.041 174 141.557 171.907 139.7 170.175C137.843 168.443 135.652 167.108 133.26 166.252C130.869 165.396 128.328 165.037 125.793 165.197C115.85 165.822 108.353 174.575 108.353 184.532V196.07C108.351 196.093 108.34 196.115 108.322 196.131C108.305 196.147 108.282 196.155 108.258 196.155H102.287C102.275 196.155 102.263 196.158 102.252 196.162C102.241 196.167 102.231 196.174 102.223 196.183C102.215 196.192 102.209 196.203 102.205 196.214C102.202 196.226 102.2 196.238 102.202 196.25V207.068C102.202 207.091 102.211 207.112 102.227 207.128C102.243 207.144 102.264 207.153 102.287 207.153H108.23C108.253 207.153 108.276 207.162 108.294 207.178C108.311 207.193 108.322 207.215 108.325 207.239V236.037C108.324 236.051 108.326 236.065 108.332 236.078C108.338 236.09 108.347 236.101 108.359 236.11C108.37 236.118 108.383 236.124 108.397 236.126C108.411 236.128 108.425 236.127 108.438 236.122Z" fill="#005FBB"/>
<path d="M240.733 88.608V126.339C240.733 126.362 240.724 126.384 240.708 126.4C240.692 126.416 240.67 126.425 240.648 126.425H236.06C236.037 126.424 236.014 126.433 235.996 126.449C235.979 126.465 235.968 126.486 235.965 126.51V137.328C235.965 137.353 235.975 137.377 235.993 137.395C236.011 137.413 236.035 137.423 236.06 137.423H240.666C240.689 137.423 240.711 137.432 240.727 137.448C240.743 137.464 240.752 137.485 240.752 137.508V158.879C240.754 158.903 240.765 158.925 240.783 158.94C240.8 158.956 240.823 158.965 240.847 158.965H251.671C251.693 158.965 251.715 158.956 251.731 158.94C251.747 158.924 251.756 158.902 251.756 158.879V137.518C251.756 137.495 251.765 137.473 251.781 137.457C251.797 137.441 251.818 137.432 251.841 137.432H256.438C256.45 137.432 256.462 137.43 256.473 137.425C256.484 137.42 256.494 137.413 256.502 137.404C256.51 137.395 256.516 137.385 256.52 137.373C256.523 137.362 256.525 137.35 256.523 137.338V126.51C256.523 126.487 256.514 126.466 256.498 126.45C256.482 126.434 256.461 126.425 256.438 126.425H251.841C251.818 126.425 251.797 126.416 251.781 126.4C251.765 126.384 251.756 126.362 251.756 126.339V88.608H240.733Z" fill="#005FBB"/>
<path d="M126.551 129.74V140.558C126.55 140.571 126.551 140.584 126.555 140.596C126.56 140.609 126.567 140.62 126.576 140.629C126.585 140.638 126.596 140.645 126.608 140.649C126.62 140.653 126.633 140.655 126.646 140.653C133.419 140.524 139.871 137.743 144.615 132.91C149.359 128.077 152.017 121.577 152.017 114.806C152.017 108.035 149.359 101.535 144.615 96.7016C139.871 91.8684 133.419 89.0882 126.646 88.9586C126.633 88.9571 126.62 88.9585 126.608 88.9627C126.596 88.9669 126.585 88.9739 126.576 88.983C126.567 88.9921 126.56 89.0032 126.555 89.0154C126.551 89.0275 126.55 89.0405 126.551 89.0533V99.8716C126.551 99.8942 126.56 99.9159 126.576 99.9319C126.592 99.9479 126.614 99.9569 126.637 99.9569C130.512 100.055 134.196 101.662 136.902 104.436C139.608 107.21 141.123 110.931 141.123 114.806C141.123 118.68 139.608 122.402 136.902 125.176C134.196 127.95 130.512 129.557 126.637 129.655C126.614 129.655 126.592 129.664 126.576 129.68C126.56 129.696 126.551 129.718 126.551 129.74Z" fill="#005FBB"/>
<path d="M185.694 133.112C185.687 139.923 188.372 146.462 193.165 151.304C197.958 156.146 204.471 158.899 211.285 158.964C211.31 158.964 211.334 158.954 211.352 158.936C211.37 158.919 211.38 158.895 211.38 158.869V148.051C211.385 148.037 211.387 148.022 211.384 148.007C211.382 147.992 211.375 147.978 211.366 147.967C211.356 147.955 211.343 147.947 211.329 147.941C211.315 147.936 211.3 147.935 211.285 147.938C207.344 147.938 203.563 146.373 200.776 143.587C197.989 140.801 196.424 137.023 196.424 133.084C196.424 129.144 197.989 125.366 200.776 122.581C203.563 119.795 207.344 118.23 211.285 118.23C211.308 118.23 211.329 118.221 211.345 118.205C211.361 118.189 211.37 118.167 211.37 118.145V107.355C211.37 107.33 211.36 107.306 211.343 107.288C211.325 107.27 211.301 107.26 211.276 107.26C204.463 107.328 197.952 110.082 193.161 114.924C188.37 119.765 185.687 126.303 185.694 133.112Z" fill="#005FBB"/>
<path d="M196.612 239.978C196.602 246.8 199.294 253.349 204.1 258.193C208.906 263.037 215.435 265.783 222.26 265.83C222.285 265.83 222.309 265.82 222.327 265.803C222.345 265.785 222.355 265.761 222.355 265.736V254.917C222.355 254.895 222.346 254.873 222.33 254.857C222.314 254.841 222.292 254.832 222.269 254.832C218.394 254.734 214.71 253.127 212.004 250.353C209.298 247.579 207.783 243.858 207.783 239.983C207.783 236.109 209.298 232.387 212.004 229.613C214.71 226.839 218.394 225.232 222.269 225.134C222.292 225.134 222.314 225.125 222.33 225.109C222.346 225.093 222.355 225.071 222.355 225.049V214.25C222.355 214.224 222.345 214.2 222.327 214.183C222.309 214.165 222.285 214.155 222.26 214.155C215.44 214.202 208.915 216.944 204.11 221.782C199.305 226.62 196.61 233.162 196.612 239.978Z" fill="#005FBB"/>
<path d="M175.675 189.287C175.654 189.29 175.635 189.3 175.621 189.315C175.607 189.331 175.599 189.352 175.599 189.373C175.599 193.312 174.034 197.09 171.246 199.876C168.459 202.661 164.679 204.226 160.738 204.226C156.796 204.226 153.016 202.661 150.229 199.876C147.442 197.09 145.876 193.312 145.876 189.373C145.876 189.35 145.867 189.328 145.851 189.312C145.835 189.296 145.813 189.287 145.791 189.287H134.967C134.942 189.289 134.92 189.3 134.902 189.317C134.885 189.335 134.874 189.358 134.872 189.382C135.002 196.152 137.783 202.6 142.619 207.342C147.455 212.083 153.959 214.739 160.733 214.739C167.507 214.739 174.011 212.083 178.847 207.342C183.683 202.6 186.464 196.152 186.594 189.382C186.594 189.359 186.585 189.336 186.57 189.318C186.554 189.301 186.532 189.29 186.509 189.287H175.675Z" fill="#005FBB"/>
<path d="M155.439 183.812H166.263C166.286 183.812 166.307 183.803 166.323 183.787C166.339 183.771 166.348 183.75 166.348 183.727C166.348 179.788 167.914 176.009 170.701 173.224C173.488 170.438 177.269 168.873 181.21 168.873C185.152 168.873 188.932 170.438 191.719 173.224C194.506 176.009 196.072 179.788 196.072 183.727C196.07 183.738 196.071 183.749 196.074 183.759C196.078 183.769 196.083 183.779 196.09 183.787C196.097 183.795 196.106 183.801 196.116 183.806C196.126 183.81 196.137 183.812 196.148 183.812H206.971C206.984 183.814 206.997 183.812 207.009 183.808C207.022 183.804 207.033 183.797 207.042 183.788C207.051 183.779 207.058 183.768 207.062 183.756C207.066 183.743 207.068 183.73 207.066 183.718C206.937 176.948 204.155 170.5 199.319 165.758C194.483 161.017 187.98 158.36 181.205 158.36C174.431 158.36 167.927 161.017 163.091 165.758C158.256 170.5 155.474 176.948 155.344 183.718C155.343 183.73 155.344 183.743 155.348 183.756C155.353 183.768 155.36 183.779 155.369 183.788C155.378 183.797 155.389 183.804 155.401 183.808C155.413 183.812 155.426 183.814 155.439 183.812Z" fill="#005FBB"/>
<path d="M244.854 189.07H255.906C255.719 186.068 254.805 183.156 253.242 180.585C251.68 178.014 249.516 175.861 246.937 174.312C244.358 172.762 241.441 171.861 238.436 171.688C235.432 171.514 232.43 172.073 229.69 173.316V167.632H218.686V203.165H229.69V190.491C229.662 188.74 230.229 187.032 231.298 185.645C232.367 184.259 233.875 183.275 235.575 182.855C236.596 182.617 237.654 182.591 238.684 182.779C239.715 182.967 240.696 183.364 241.566 183.947C242.436 184.53 243.177 185.286 243.743 186.167C244.309 187.048 244.687 188.036 244.854 189.07Z" fill="#005FBB"/>
</svg>
