<svg id="Layer_1" data-name="Layer 1" xmlns="http://www.w3.org/2000/svg" xmlns:xlink="http://www.w3.org/1999/xlink" viewBox="0 0 122.98 119.24"><defs><style>.cls-1,.cls-2{fill-rule:evenodd;}.cls-1{fill:url(#linear-gradient);}.cls-2{fill:url(#linear-gradient-2);}</style><linearGradient id="linear-gradient" x1="109.32" y1="19.18" x2="56.04" y2="66.97" gradientTransform="matrix(1, 0, 0, -1, 0, 120.24)" gradientUnits="userSpaceOnUse"><stop offset="0" stop-color="#d7a8de"/><stop offset="1" stop-color="#fff" stop-opacity="0"/></linearGradient><linearGradient id="linear-gradient-2" x1="10.58" y1="108.87" x2="66.57" y2="53.82" gradientTransform="matrix(1, 0, 0, -1, 0, 120.24)" gradientUnits="userSpaceOnUse"><stop offset="0" stop-color="#c888d1"/><stop offset="1" stop-color="#fff" stop-opacity="0"/></linearGradient></defs><path class="cls-1" d="M22.69,103.31c22,22,58.38,21.25,82-2.36s24.34-60,2.37-82c-3.43-3.43-25.09,12.68-48.38,36S19.27,99.89,22.69,103.31ZM47,115.74c19,5.29,40.8,0,56.65-15.83s21.12-37.63,15.83-56.65c3.07,17.7-3.39,38-18.93,53.55S64.69,118.81,47,115.74Zm52.52-20C83.26,112,61.77,118,43.81,113.49c16.74,2.3,36.77-5,52.6-20.82s23.11-35.85,20.81-52.59C121.78,58,115.76,79.53,99.51,95.78ZM40.68,111.35c16.8,3.82,38-3,54.69-19.71S118.9,53.74,115.08,37a45.57,45.57,0,0,1-.91,13.76C111.5,63.24,104,76.79,92.27,88.54S67,107.77,54.44,110.43A45.27,45.27,0,0,1,40.68,111.35ZM54.23,109a41.58,41.58,0,0,1-16.56.41,42.92,42.92,0,0,0,13.9-1.86c11.77-3.43,24.84-11.37,36.56-23.1s19.68-24.8,23.1-36.56a42.69,42.69,0,0,0,1.86-13.9,41.17,41.17,0,0,1-.41,16.55c-2.59,12.19-9.89,25.46-21.44,37S66.41,106.36,54.23,109Zm-19.36-1.4A38.27,38.27,0,0,0,51.24,106C62.7,102.71,75.53,94.93,87.1,83.37S106.44,59,109.77,47.51a38,38,0,0,0,1.51-16.38,41.54,41.54,0,0,1-3,13.85C104.11,56,95.71,68.55,84,80.27s-24.3,20.1-35.29,24.28A41.79,41.79,0,0,1,34.87,107.55Zm13.39-4.41c-6.08,2.31-11.54,3.25-16,2.77a42.19,42.19,0,0,0,13.6-4.31c10.22-4.93,22.32-13.78,34-25.47s20.55-23.8,25.47-34a41.91,41.91,0,0,0,4.31-13.61c.48,4.48-.46,9.94-2.77,16C102.79,55.26,94.55,67.65,83,79.23S59,99.06,48.26,103.14Zm-18.43,1.34a17.49,17.49,0,0,0,2.26-.07,40.31,40.31,0,0,0,13.18-4.17c10-4.82,22-13.55,33.56-25.14S99.15,51.55,104,41.54a39.84,39.84,0,0,0,4.17-13.18,15.91,15.91,0,0,0,.07-2.26c0,.26-.12.53-.19.8a49,49,0,0,1-5.65,12.36C96.7,48.7,87.41,60.31,75.73,72S52.43,93,43,98.64a49,49,0,0,1-12.35,5.65Zm.53-1.66a12.11,12.11,0,0,1-3.94.45c7.86-2.81,25.72-17,44.65-35.93S104.2,30.55,107,22.69a12.14,12.14,0,0,1-.45,3.94,47,47,0,0,1-5.47,11.92C95.51,47.84,86.31,59.35,74.69,71S51.57,91.77,42.28,97.35A47.7,47.7,0,0,1,30.36,102.82Zm74.72-82.76a1.67,1.67,0,0,1,.86,0,1.62,1.62,0,0,1,0,.86,12.39,12.39,0,0,1-1.15,3.18,71.91,71.91,0,0,1-6.9,10.74A304.58,304.58,0,0,1,70,66.31c-11.61,11.6-22.78,21.4-31.46,27.84a73,73,0,0,1-10.74,6.91,12.66,12.66,0,0,1-3.18,1.15c-.6.1-.81,0-.86,0a1.57,1.57,0,0,1,0-.85A12.14,12.14,0,0,1,25,98.17a72.42,72.42,0,0,1,6.9-10.75A303.57,303.57,0,0,1,59.7,56,303.54,303.54,0,0,1,91.16,28.12a71.91,71.91,0,0,1,10.74-6.9A12.78,12.78,0,0,1,105.08,20.06Z"/><path class="cls-2" d="M15.93,100.29c-22-22-21.24-58.38,2.37-82s60-24.35,82-2.37c3.43,3.43-12.67,25.09-36,48.38S19.36,103.71,15.93,100.29ZM3.51,76c-5.3-19,0-40.8,15.82-56.66S57-1.79,76,3.51C58.29.44,38,6.9,22.44,22.44S.44,58.29,3.51,76Zm20-52.52C7.22,39.72,1.2,61.21,5.76,79.16c-2.3-16.73,5-36.76,20.81-52.59S62.43,3.46,79.16,5.76C61.21,1.2,39.72,7.22,23.47,23.47ZM7.9,82.29c-3.82-16.79,3-38,19.71-54.68S65.5,4.08,82.29,7.9a45.21,45.21,0,0,0-13.75.91C56,11.48,42.45,19,30.71,30.71S11.48,56,8.81,68.54A45.21,45.21,0,0,0,7.9,82.29Zm2.39-13.54a41.58,41.58,0,0,0-.41,16.56,42.91,42.91,0,0,1,1.87-13.9c3.42-11.77,11.37-24.84,23.09-36.57s24.8-19.67,36.57-23.09a42.91,42.91,0,0,1,13.9-1.87,41.58,41.58,0,0,0-16.56.41c-12.18,2.6-25.46,9.9-37,21.45S12.89,56.57,10.29,68.75ZM11.7,88.11a38.14,38.14,0,0,1,1.5-16.38c3.34-11.45,11.11-24.29,22.68-35.85S60.28,16.54,71.73,13.2a38.14,38.14,0,0,1,16.38-1.5,41.46,41.46,0,0,0-13.84,3C63.27,18.87,50.69,27.27,39,39S18.87,63.27,14.69,74.27A41.46,41.46,0,0,0,11.7,88.11Zm4.41-13.39c-2.31,6.08-3.26,11.54-2.78,16a42.09,42.09,0,0,1,4.32-13.6c4.92-10.22,13.77-22.32,25.46-34s23.8-20.54,34-25.46a42.09,42.09,0,0,1,13.6-4.32c-4.47-.48-9.93.47-16,2.78C64,20.18,51.6,28.43,40,40S20.18,64,16.11,74.72ZM14.77,93.15a17.57,17.57,0,0,1,.06-2.27A40.27,40.27,0,0,1,19,77.71c4.83-10,13.55-22,25.15-33.56S67.7,23.83,77.71,19a40.27,40.27,0,0,1,13.17-4.17,17.57,17.57,0,0,1,2.27-.06q-.41.08-.81.18A49.28,49.28,0,0,0,80,20.61c-9.44,5.66-21.06,15-32.74,26.64S26.27,70.55,20.61,80A49.28,49.28,0,0,0,15,92.34Q14.85,92.75,14.77,93.15Zm1.65-.53A12.07,12.07,0,0,0,16,96.56C18.78,88.7,33,70.84,51.9,51.9S88.7,18.78,96.56,16a12.07,12.07,0,0,0-3.94.44A47.54,47.54,0,0,0,80.7,21.89c-9.29,5.58-20.8,14.78-32.42,26.39S27.47,71.41,21.89,80.7A47.54,47.54,0,0,0,16.42,92.62ZM99.18,17.9c.1-.6,0-.81,0-.86a1.62,1.62,0,0,0-.85,0,12.64,12.64,0,0,0-3.18,1.16,72.42,72.42,0,0,0-10.75,6.9A303.57,303.57,0,0,0,52.94,52.94,303.57,303.57,0,0,0,25.09,84.39a72.42,72.42,0,0,0-6.9,10.75A12.64,12.64,0,0,0,17,98.32a1.62,1.62,0,0,0,0,.85c.05,0,.26.11.86,0A12.39,12.39,0,0,0,21.08,98a72.12,72.12,0,0,0,10.74-6.91A304.33,304.33,0,0,0,63.28,63.28,304.33,304.33,0,0,0,91.12,31.82,72.12,72.12,0,0,0,98,21.08,12.39,12.39,0,0,0,99.18,17.9Z"/></svg>