<svg width="42" height="42" fill="none" xmlns="http://www.w3.org/2000/svg"><path fill-rule="evenodd" clip-rule="evenodd" d="M12 33.567c0-.976.672-1.767 1.5-1.767h27c.828 0 1.5.791 1.5 1.767 0 .975-.672 1.766-1.5 1.766h-27c-.828 0-1.5-.79-1.5-1.766ZM12 19.433c0-.975.672-1.766 1.5-1.766h27c.828 0 1.5.79 1.5 1.766s-.672 1.767-1.5 1.767h-27c-.828 0-1.5-.791-1.5-1.767ZM12 5.3c0-.976.672-1.767 1.5-1.767h27c.828 0 1.5.791 1.5 1.767 0 .976-.672 1.767-1.5 1.767h-27c-.828 0-1.5-.791-1.5-1.767ZM8.56.517c.586.69.586 1.809 0 2.499l-4.5 5.3c-.585.69-1.535.69-2.12 0L.44 6.549c-.586-.69-.586-1.808 0-2.498.585-.69 1.535-.69 2.12 0l.44.517L6.44.518c.585-.69 1.535-.69 2.12 0ZM8.56 14.65c.586.69.586 1.81 0 2.5l-4.5 5.3c-.585.69-1.535.69-2.12 0l-1.5-1.767c-.586-.69-.586-1.809 0-2.499.585-.69 1.535-.69 2.12 0l.44.518 3.44-4.051c.585-.69 1.535-.69 2.12 0ZM8.56 28.784c.586.69.586 1.809 0 2.499l-4.5 5.3c-.585.69-1.535.69-2.12 0l-1.5-1.767c-.586-.69-.586-1.809 0-2.499.585-.69 1.535-.69 2.12 0l.44.518 3.44-4.05c.585-.69 1.535-.69 2.12 0Z" fill="#DC9FF2"/></svg>