<svg width="40" height="40" viewBox="0 0 40 40" fill="none" xmlns="http://www.w3.org/2000/svg">
<path d="M5.54568 7.5C5.54568 6.11929 6.68984 5 8.10124 5H23.4346C24.846 5 25.9901 6.11929 25.9901 7.5V15C25.9901 16.3807 24.846 17.5 23.4346 17.5H8.10124C6.68984 17.5 5.54568 16.3807 5.54568 15V7.5ZM8.10124 7.5V15H23.4346V7.5H8.10124Z" fill="#CC0099"/>
<path d="M0.43457 5C0.43457 2.23858 2.72289 0 5.54568 0H25.9901C28.8129 0 31.1012 2.23858 31.1012 5V35C31.1012 37.7614 28.8129 40 25.9901 40H5.54568C2.72289 40 0.43457 37.7614 0.43457 35V5ZM5.54568 2.5C4.13429 2.5 2.99013 3.61929 2.99013 5V35C2.99013 36.3807 4.13429 37.5 5.54568 37.5H25.9901C27.4015 37.5 28.5457 36.3807 28.5457 35V5C28.5457 3.61929 27.4015 2.5 25.9901 2.5H5.54568Z" fill="#CC0099"/>
<path d="M24.2866 32.75C24.2866 32.3358 24.4773 32 24.7126 32H25.5644C25.7997 32 25.9903 32.3358 25.9903 32.75V34.25C25.9903 34.6642 25.7997 35 25.5644 35H24.7126C24.4773 35 24.2866 34.6642 24.2866 34.25V32.75Z" fill="#CC0099"/>
<path d="M24.2866 26.75C24.2866 26.3358 24.4773 26 24.7126 26H25.5644C25.7997 26 25.9903 26.3358 25.9903 26.75V28.25C25.9903 28.6642 25.7997 29 25.5644 29H24.7126C24.4773 29 24.2866 28.6642 24.2866 28.25V26.75Z" fill="#CC0099"/>
<path d="M15.7681 26.75C15.7681 26.3358 15.9588 26 16.194 26H17.0459C17.2811 26 17.4718 26.3358 17.4718 26.75V28.25C17.4718 28.6642 17.2811 29 17.0459 29H16.194C15.9588 29 15.7681 28.6642 15.7681 28.25V26.75Z" fill="#CC0099"/>
<path d="M19.1755 26.75C19.1755 26.3358 19.3662 26 19.6015 26H22.157C22.3922 26 22.5829 26.3358 22.5829 26.75V28.25C22.5829 28.6642 22.3922 29 22.157 29H19.6015C19.3662 29 19.1755 28.6642 19.1755 28.25V26.75Z" fill="#CC0099"/>
<path d="M20.8792 32.75C20.8792 32.3358 21.0699 32 21.3052 32H22.157C22.3922 32 22.5829 32.3358 22.5829 32.75V34.25C22.5829 34.6642 22.3922 35 22.157 35H21.3052C21.0699 35 20.8792 34.6642 20.8792 34.25V32.75Z" fill="#CC0099"/>
<path d="M12.3607 26.75C12.3607 26.3358 12.5514 26 12.7866 26H13.6385C13.8737 26 14.0644 26.3358 14.0644 26.75V28.25C14.0644 28.6642 13.8737 29 13.6385 29H12.7866C12.5514 29 12.3607 28.6642 12.3607 28.25V26.75Z" fill="#CC0099"/>
<path d="M8.95331 26.75C8.95331 26.3358 9.144 26 9.37923 26H10.2311C10.4663 26 10.657 26.3358 10.657 26.75V28.25C10.657 28.6642 10.4663 29 10.2311 29H9.37923C9.144 29 8.95331 28.6642 8.95331 28.25V26.75Z" fill="#CC0099"/>
<path d="M5.5459 26.75C5.5459 26.3358 5.73659 26 5.97182 26H6.82368C7.05891 26 7.2496 26.3358 7.2496 26.75V28.25C7.2496 28.6642 7.05891 29 6.82368 29H5.97182C5.73659 29 5.5459 28.6642 5.5459 28.25V26.75Z" fill="#CC0099"/>
<path d="M24.2866 20.75C24.2866 20.3358 24.4773 20 24.7126 20H25.5644C25.7997 20 25.9903 20.3358 25.9903 20.75V22.25C25.9903 22.6642 25.7997 23 25.5644 23H24.7126C24.4773 23 24.2866 22.6642 24.2866 22.25V20.75Z" fill="#CC0099"/>
<path d="M20.8792 20.75C20.8792 20.3358 21.0699 20 21.3052 20H22.157C22.3922 20 22.5829 20.3358 22.5829 20.75V22.25C22.5829 22.6642 22.3922 23 22.157 23H21.3052C21.0699 23 20.8792 22.6642 20.8792 22.25V20.75Z" fill="#CC0099"/>
<path d="M17.4718 20.75C17.4718 20.3358 17.6625 20 17.8978 20H18.7496C18.9848 20 19.1755 20.3358 19.1755 20.75V22.25C19.1755 22.6642 18.9848 23 18.7496 23H17.8978C17.6625 23 17.4718 22.6642 17.4718 22.25V20.75Z" fill="#CC0099"/>
<path d="M14.0644 20.75C14.0644 20.3358 14.2551 20 14.4903 20H15.3422C15.5774 20 15.7681 20.3358 15.7681 20.75V22.25C15.7681 22.6642 15.5774 23 15.3422 23H14.4903C14.2551 23 14.0644 22.6642 14.0644 22.25V20.75Z" fill="#CC0099"/>
<path d="M10.657 20.75C10.657 20.3358 10.8477 20 11.0829 20H11.9348C12.17 20 12.3607 20.3358 12.3607 20.75V22.25C12.3607 22.6642 12.17 23 11.9348 23H11.0829C10.8477 23 10.657 22.6642 10.657 22.25V20.75Z" fill="#CC0099"/>
<path d="M5.5459 20.75C5.5459 20.3358 5.73659 20 5.97182 20H8.52738C8.76261 20 8.95331 20.3358 8.95331 20.75V22.25C8.95331 22.6642 8.76261 23 8.52738 23H5.97182C5.73659 23 5.5459 22.6642 5.5459 22.25V20.75Z" fill="#CC0099"/>
<path d="M5.5459 32.75C5.5459 32.3358 5.73659 32 5.97182 32H6.82368C7.05891 32 7.2496 32.3358 7.2496 32.75V34.25C7.2496 34.6642 7.05891 35 6.82368 35H5.97182C5.73659 35 5.5459 34.6642 5.5459 34.25V32.75Z" fill="#CC0099"/>
<path d="M8.95331 32.75C8.95331 32.3358 9.144 32 9.37923 32H18.7496C18.9848 32 19.1755 32.3358 19.1755 32.75V34.25C19.1755 34.6642 18.9848 35 18.7496 35H9.37923C9.144 35 8.95331 34.6642 8.95331 34.25V32.75Z" fill="#CC0099"/>
</svg>
