<svg width="40" height="40" viewBox="0 0 40 40" fill="none" xmlns="http://www.w3.org/2000/svg">
<path d="M21.2874 2.54741C20.86 2.51589 20.4306 2.5 20 2.5V0C20.4921 0 20.9829 0.018155 21.4713 0.0541804L21.2874 2.54741ZM26.2982 3.67262C25.4964 3.36333 24.6728 3.11351 23.8343 2.92521L24.382 0.485955C25.3403 0.701156 26.2815 0.986663 27.1979 1.34014L26.2982 3.67262ZM29.7225 5.44928C29.3644 5.21004 28.9986 4.98469 28.6257 4.77346L29.858 2.59825C30.2841 2.83966 30.7022 3.09721 31.1114 3.37061C31.5206 3.64401 31.9185 3.93175 32.3046 4.23306L30.7666 6.20394C30.4287 5.94029 30.0805 5.68852 29.7225 5.44928ZM34.3077 9.92336C33.8129 9.22072 33.2669 8.55546 32.6743 7.93303L34.485 6.20919C35.1622 6.92053 35.7862 7.68082 36.3517 8.48383L34.3077 9.92336ZM36.1679 13.303C36.0031 12.9052 35.8241 12.5146 35.6314 12.1318L37.8645 11.0078C38.0847 11.4452 38.2893 11.8917 38.4776 12.3463C38.6659 12.801 38.8369 13.2613 38.9906 13.7264L36.6168 14.5106C36.4823 14.1037 36.3327 13.7009 36.1679 13.303ZM37.4947 19.5705C37.4736 18.7114 37.3893 17.8549 37.2424 17.0082L39.7056 16.5808C39.8735 17.5485 39.9699 18.5273 39.994 19.5092L37.4947 19.5705ZM37.1637 23.4141C37.2478 22.9917 37.3159 22.5675 37.3684 22.1422L39.8496 22.4482C39.7896 22.9343 39.7117 23.4192 39.6157 23.9018C39.5197 24.3845 39.4062 24.8622 39.2755 25.3343L36.8661 24.6675C36.9804 24.2545 37.0797 23.8364 37.1637 23.4141ZM34.7849 29.3625C35.2447 28.6364 35.6504 27.8774 35.9987 27.0917L38.2842 28.1048C37.8862 29.0027 37.4225 29.8702 36.8971 30.6999L34.7849 29.3625ZM32.3744 32.3744C32.6789 32.0699 32.9713 31.755 33.2512 31.4305L35.1442 33.0635C34.8243 33.4343 34.4901 33.7942 34.1421 34.1421L32.3744 32.3744Z" fill="#CC0099"/>
<path d="M20 2.5C17.1221 2.5 14.2886 3.20975 11.7506 4.56638C9.21249 5.92301 7.04816 7.88464 5.44929 10.2775C3.85041 12.6704 2.86635 15.4207 2.58427 18.2847C2.30219 21.1487 2.73079 24.0381 3.83211 26.697C4.93343 29.3558 6.67348 31.702 8.89812 33.5277C11.1228 35.3534 13.7633 36.6023 16.5859 37.1637C19.4085 37.7252 22.326 37.5819 25.08 36.7465C27.834 35.911 30.3394 34.4093 32.3744 32.3744L34.1421 34.1421C31.8164 36.4678 28.9531 38.1841 25.8057 39.1388C22.6583 40.0936 19.324 40.2574 16.0982 39.6157C12.8724 38.974 9.85458 37.5467 7.31214 35.4602C4.76969 33.3737 2.78107 30.6923 1.52241 27.6537C0.263761 24.615 -0.22607 21.3128 0.0963105 18.0397C0.418691 14.7665 1.54333 11.6233 3.37061 8.8886C5.19789 6.15387 7.67141 3.91201 10.5721 2.36157C13.4727 0.811142 16.711 0 20 0V2.5Z" fill="#CC0099"/>
<path d="M18.75 7.5C19.4404 7.5 20 8.05964 20 8.75V21.7746L28.1202 26.4147C28.7196 26.7572 28.9278 27.5208 28.5853 28.1202C28.2428 28.7196 27.4792 28.9278 26.8798 28.5853L18.1298 23.5853C17.7404 23.3628 17.5 22.9486 17.5 22.5V8.75C17.5 8.05964 18.0596 7.5 18.75 7.5Z" fill="#CC0099"/>
</svg>
