<svg width="72" height="25" fill="none" xmlns="http://www.w3.org/2000/svg"><path fill-rule="evenodd" clip-rule="evenodd" d="M12.959.465c.666.638.686 1.693.046 2.357L3.668 12.5l9.337 9.678c.64.664.62 1.719-.046 2.357a1.676 1.676 0 0 1-2.365-.047L.7 14.233a2.494 2.494 0 0 1 0-3.466L10.594.511A1.676 1.676 0 0 1 12.96.465Zm14.632 0c.666.638.686 1.693.046 2.357L18.3 12.5l9.337 9.678c.64.664.62 1.719-.046 2.357a1.676 1.676 0 0 1-2.365-.047l-9.894-10.255a2.494 2.494 0 0 1 0-3.466L25.226.511a1.676 1.676 0 0 1 2.365-.046Zm14.678 2.357c.64-.664.62-1.719-.046-2.357a1.676 1.676 0 0 0-2.365.046l-9.894 10.256a2.494 2.494 0 0 0 0 3.466l9.894 10.255c.64.664 1.7.685 2.365.047a1.663 1.663 0 0 0 .046-2.357L32.932 12.5l9.337-9.678ZM56.855.465c.666.638.686 1.693.046 2.357L47.564 12.5l9.337 9.678c.64.664.62 1.719-.046 2.357a1.676 1.676 0 0 1-2.365-.047l-9.894-10.255a2.494 2.494 0 0 1 0-3.466L54.49.511a1.676 1.676 0 0 1 2.365-.046Zm14.678 2.357c.64-.664.62-1.719-.046-2.357a1.676 1.676 0 0 0-2.365.046l-9.894 10.256a2.494 2.494 0 0 0 0 3.466l9.894 10.255c.64.664 1.7.685 2.365.047a1.663 1.663 0 0 0 .046-2.357L62.196 12.5l9.337-9.678Z" fill="#FBFDFF" fill-opacity=".5"/></svg>