<svg width="32" height="32" viewBox="0 0 32 32" fill="none" xmlns="http://www.w3.org/2000/svg">
<rect width="32" height="32" rx="8" fill="#EAF3FF"/>
<path d="M8.12926 5.0083H6.77725C6.77137 5.0083 6.7666 5.01307 6.7666 5.01895V13.7733C6.7666 13.7792 6.77137 13.7839 6.77725 13.7839H8.12926C8.13514 13.7839 8.1399 13.7792 8.1399 13.7733V5.01895C8.1399 5.01307 8.13514 5.0083 8.12926 5.0083Z" fill="#005FBB"/>
<path d="M13.6523 5.01071V12.4083C13.6523 12.4098 13.6526 12.4113 13.6533 12.4127C13.6539 12.4141 13.6548 12.4153 13.6559 12.4163C13.657 12.4173 13.6583 12.4181 13.6597 12.4185C13.6612 12.419 13.6627 12.4191 13.6642 12.419H15.015C15.0178 12.419 15.0205 12.4178 15.0225 12.4158C15.0245 12.4139 15.0256 12.4111 15.0256 12.4083V5.01071C15.0256 5.00789 15.0245 5.00518 15.0225 5.00318C15.0205 5.00119 15.0178 5.00007 15.015 5.00007H13.6642C13.6627 4.9999 13.6612 5.00005 13.6597 5.00051C13.6583 5.00097 13.657 5.00173 13.6559 5.00273C13.6548 5.00374 13.6539 5.00497 13.6533 5.00635C13.6526 5.00772 13.6523 5.00921 13.6523 5.01071Z" fill="#005FBB"/>
<path d="M21.8939 7.22729H20.5419C20.536 7.22729 20.5312 7.23206 20.5312 7.23794V13.7732C20.5312 13.7791 20.536 13.7839 20.5419 13.7839H21.8939C21.8998 13.7839 21.9045 13.7791 21.9045 13.7732V7.23794C21.9045 7.23206 21.8998 7.22729 21.8939 7.22729Z" fill="#005FBB"/>
<path d="M23.2621 20.6742H21.9101C21.9042 20.6742 21.8994 20.679 21.8994 20.6848V27.1184C21.8994 27.1243 21.9042 27.1291 21.9101 27.1291H23.2621C23.268 27.1291 23.2727 27.1243 23.2727 27.1184V20.6848C23.2727 20.679 23.268 20.6742 23.2621 20.6742Z" fill="#005FBB"/>
<path d="M10.2247 22.0748H11.5696C11.5725 22.0748 11.5752 22.076 11.5772 22.0779C11.5792 22.0799 11.5803 22.0827 11.5803 22.0855V27.1138C11.5803 27.117 11.579 27.12 11.5768 27.1222C11.5746 27.1244 11.5716 27.1256 11.5684 27.1256H10.2235C10.2207 27.1256 10.218 27.1245 10.216 27.1225C10.214 27.1205 10.2129 27.1178 10.2129 27.115V22.0867C10.2129 22.0835 10.2141 22.0805 10.2164 22.0783C10.2186 22.0761 10.2216 22.0748 10.2247 22.0748Z" fill="#005FBB"/>
<path d="M13.9837 22.0748H12.6317C12.6259 22.0748 12.6211 22.0796 12.6211 22.0855V25.5678C12.6211 25.5737 12.6259 25.5785 12.6317 25.5785H13.9837C13.9896 25.5785 13.9944 25.5737 13.9944 25.5678V22.0855C13.9944 22.0796 13.9896 22.0748 13.9837 22.0748Z" fill="#005FBB"/>
<path d="M15.0399 22.0748H16.3908C16.3936 22.0748 16.3963 22.076 16.3983 22.0779C16.4003 22.0799 16.4014 22.0827 16.4014 22.0855V27.1138C16.4014 27.117 16.4002 27.12 16.398 27.1222C16.3957 27.1244 16.3927 27.1256 16.3896 27.1256H15.0399C15.0371 27.1256 15.0344 27.1245 15.0324 27.1225C15.0304 27.1205 15.0293 27.1178 15.0293 27.115V22.0867C15.0293 22.0837 15.0304 22.0809 15.0323 22.0787C15.0343 22.0765 15.037 22.0751 15.0399 22.0748Z" fill="#005FBB"/>
<path d="M6.77839 23.4195H8.12921C8.13204 23.4195 8.13474 23.4184 8.13674 23.4164C8.13874 23.4144 8.13986 23.4117 8.13986 23.4089V19.813C8.13985 19.8115 8.14016 19.81 8.14077 19.8086C8.14137 19.8073 8.14226 19.806 8.14338 19.805C8.1445 19.804 8.14582 19.8033 8.14725 19.8028C8.14868 19.8023 8.15019 19.8022 8.15169 19.8024H8.89334C8.89616 19.8024 8.89887 19.8012 8.90087 19.7992C8.90287 19.7972 8.90399 19.7945 8.90399 19.7917V18.4409C8.90415 18.4394 8.904 18.4379 8.90354 18.4364C8.90308 18.435 8.90232 18.4337 8.90132 18.4326C8.90031 18.4315 8.89908 18.4306 8.89771 18.43C8.89633 18.4294 8.89484 18.429 8.89334 18.429H8.15169C8.15019 18.4292 8.14868 18.4291 8.14725 18.4286C8.14582 18.4281 8.1445 18.4274 8.14338 18.4264C8.14226 18.4254 8.14137 18.4241 8.14077 18.4228C8.14016 18.4214 8.13985 18.4199 8.13986 18.4184V16.9315C8.13503 16.7036 8.20937 16.4811 8.35022 16.3019C8.49106 16.1227 8.68969 15.9978 8.91227 15.9486C9.04939 15.9225 9.19056 15.9267 9.32586 15.9611C9.46116 15.9954 9.5873 16.0589 9.69542 16.1472C9.80354 16.2354 9.89102 16.3463 9.95169 16.472C10.0124 16.5977 10.0448 16.7352 10.0466 16.8748C10.0466 16.8776 10.0478 16.8803 10.0497 16.8823C10.0517 16.8843 10.0545 16.8854 10.0573 16.8854H11.4081C11.4097 16.8856 11.4113 16.8854 11.4128 16.8849C11.4144 16.8844 11.4157 16.8835 11.4169 16.8824C11.418 16.8812 11.4189 16.8799 11.4194 16.8783C11.4199 16.8768 11.4201 16.8752 11.4199 16.8736C11.418 16.5566 11.3513 16.2433 11.2241 15.953C11.0968 15.6626 10.9117 15.4013 10.6799 15.185C10.4481 14.9688 10.1746 14.8021 9.87616 14.6952C9.57771 14.5883 9.26058 14.5435 8.9442 14.5635C7.70338 14.6415 6.76774 15.7345 6.76774 16.9777V18.4184C6.76745 18.4213 6.76607 18.424 6.76389 18.426C6.7617 18.428 6.75885 18.4291 6.75591 18.429H6.01071C6.00921 18.429 6.00772 18.4294 6.00634 18.43C6.00497 18.4306 6.00374 18.4315 6.00273 18.4326C6.00173 18.4337 6.00097 18.435 6.00051 18.4364C6.00005 18.4379 5.9999 18.4394 6.00007 18.4409V19.7917C6.00007 19.7945 6.00119 19.7972 6.00318 19.7992C6.00518 19.8012 6.00789 19.8024 6.01071 19.8024H6.75236C6.75531 19.8023 6.75815 19.8034 6.76034 19.8054C6.76252 19.8074 6.7639 19.8101 6.76419 19.813V23.4089C6.76409 23.4106 6.76443 23.4124 6.76517 23.414C6.76591 23.4156 6.76703 23.417 6.76843 23.418C6.76984 23.4191 6.77148 23.4198 6.77322 23.42C6.77496 23.4203 6.77673 23.4201 6.77839 23.4195Z" fill="#005FBB"/>
<path d="M23.2883 5.00012V9.71145C23.2883 9.71428 23.2872 9.71699 23.2852 9.71898C23.2832 9.72098 23.2805 9.7221 23.2777 9.7221H22.7052C22.7022 9.72208 22.6994 9.72317 22.6972 9.72514C22.695 9.72711 22.6937 9.72982 22.6934 9.73275V11.0836C22.6934 11.0867 22.6946 11.0897 22.6968 11.0919C22.699 11.0942 22.7021 11.0954 22.7052 11.0954H23.2801C23.2829 11.0954 23.2856 11.0965 23.2876 11.0985C23.2896 11.1005 23.2907 11.1032 23.2907 11.106V13.7746C23.291 13.7775 23.2924 13.7802 23.2946 13.7822C23.2968 13.7842 23.2996 13.7852 23.3025 13.7852H24.6534C24.6562 13.7852 24.6589 13.7841 24.6609 13.7821C24.6629 13.7801 24.664 13.7774 24.664 13.7746V11.1072C24.664 11.1044 24.6651 11.1017 24.6671 11.0997C24.6691 11.0977 24.6718 11.0966 24.6746 11.0966H25.2483C25.2498 11.0966 25.2513 11.0963 25.2527 11.0957C25.2541 11.0951 25.2553 11.0942 25.2563 11.0931C25.2573 11.0919 25.2581 11.0906 25.2585 11.0892C25.259 11.0878 25.2592 11.0862 25.259 11.0848V9.73275C25.259 9.72992 25.2579 9.72721 25.2559 9.72522C25.2539 9.72322 25.2512 9.7221 25.2483 9.7221H24.6746C24.6718 9.7221 24.6691 9.72098 24.6671 9.71898C24.6651 9.71699 24.664 9.71428 24.664 9.71145V5.00012H23.2883Z" fill="#005FBB"/>
<path d="M9.03914 10.136V11.4868C9.03895 11.4884 9.03912 11.49 9.03965 11.4916C9.04018 11.4931 9.04104 11.4945 9.04218 11.4956C9.04332 11.4967 9.0447 11.4976 9.04622 11.4981C9.04774 11.4987 9.04937 11.4988 9.05097 11.4986C9.89624 11.4825 10.7014 11.1353 11.2935 10.5318C11.8855 9.92832 12.2172 9.11663 12.2172 8.27121C12.2172 7.42578 11.8855 6.6141 11.2935 6.0106C10.7014 5.4071 9.89624 5.05996 9.05097 5.04378C9.04937 5.04359 9.04774 5.04376 9.04622 5.04429C9.0447 5.04481 9.04332 5.04568 9.04218 5.04682C9.04104 5.04796 9.04018 5.04934 9.03965 5.05086C9.03912 5.05238 9.03895 5.054 9.03914 5.0556V6.40643C9.03914 6.40925 9.04026 6.41196 9.04226 6.41396C9.04425 6.41595 9.04696 6.41708 9.04978 6.41708C9.53342 6.42929 9.99314 6.63 10.3309 6.97638C10.6686 7.32277 10.8577 7.78742 10.8577 8.27121C10.8577 8.755 10.6686 9.21965 10.3309 9.56603C9.99314 9.91242 9.53342 10.1131 9.04978 10.1253C9.04696 10.1253 9.04425 10.1265 9.04226 10.1285C9.04026 10.1305 9.03914 10.1332 9.03914 10.136Z" fill="#005FBB"/>
<path d="M16.4199 10.557C16.4189 11.4075 16.754 12.2239 17.3522 12.8285C17.9504 13.4331 18.7632 13.7769 19.6136 13.785C19.6168 13.785 19.6198 13.7838 19.622 13.7816C19.6242 13.7793 19.6255 13.7763 19.6255 13.7732V12.4224C19.6261 12.4206 19.6263 12.4187 19.626 12.4169C19.6257 12.415 19.6249 12.4133 19.6237 12.4118C19.6225 12.4104 19.6209 12.4093 19.6192 12.4087C19.6174 12.408 19.6155 12.4079 19.6136 12.4082C19.1217 12.4082 18.65 12.2128 18.3022 11.8649C17.9543 11.5171 17.7589 11.0454 17.7589 10.5535C17.7589 10.0616 17.9543 9.5898 18.3022 9.24197C18.65 8.89414 19.1217 8.69873 19.6136 8.69873C19.6165 8.69873 19.6192 8.69761 19.6212 8.69561C19.6232 8.69362 19.6243 8.69091 19.6243 8.68809V7.34081C19.6243 7.33767 19.623 7.33466 19.6208 7.33244C19.6186 7.33023 19.6156 7.32898 19.6125 7.32898C18.7622 7.3374 17.9497 7.68132 17.3518 8.28589C16.7539 8.89045 16.4189 9.70671 16.4199 10.557Z" fill="#005FBB"/>
<path d="M17.7822 23.9009C17.781 24.7527 18.1169 25.5704 18.7167 26.1752C19.3164 26.7801 20.1313 27.123 20.983 27.1289C20.9862 27.1289 20.9892 27.1276 20.9914 27.1254C20.9936 27.1232 20.9949 27.1202 20.9949 27.1171V25.7662C20.9949 25.7634 20.9938 25.7607 20.9918 25.7587C20.9898 25.7567 20.9871 25.7556 20.9842 25.7556C20.5006 25.7434 20.0409 25.5427 19.7031 25.1963C19.3654 24.8499 19.1763 24.3853 19.1763 23.9015C19.1763 23.4177 19.3654 22.953 19.7031 22.6066C20.0409 22.2603 20.5006 22.0595 20.9842 22.0473C20.9871 22.0473 20.9898 22.0462 20.9918 22.0442C20.9938 22.0422 20.9949 22.0395 20.9949 22.0367V20.6882C20.9949 20.6851 20.9936 20.6821 20.9914 20.6799C20.9892 20.6776 20.9862 20.6764 20.983 20.6764C20.1319 20.6823 19.3176 21.0247 18.7179 21.6288C18.1183 22.2329 17.7819 23.0497 17.7822 23.9009Z" fill="#005FBB"/>
<path d="M15.1694 17.5715C15.1667 17.5718 15.1643 17.5731 15.1626 17.575C15.1608 17.577 15.1599 17.5795 15.1599 17.5822C15.1599 18.0741 14.9645 18.5458 14.6167 18.8937C14.2688 19.2415 13.7971 19.4369 13.3052 19.4369C12.8133 19.4369 12.3415 19.2415 11.9937 18.8937C11.6459 18.5458 11.4504 18.0741 11.4504 17.5822C11.4504 17.5794 11.4493 17.5766 11.4473 17.5747C11.4453 17.5727 11.4426 17.5715 11.4398 17.5715H10.089C10.0859 17.5718 10.0831 17.5731 10.0809 17.5753C10.0787 17.5775 10.0774 17.5803 10.0771 17.5834C10.0933 18.4286 10.4405 19.2338 11.044 19.8259C11.6475 20.4179 12.4592 20.7496 13.3046 20.7496C14.15 20.7496 14.9617 20.4179 15.5652 19.8259C16.1687 19.2338 16.5158 18.4286 16.532 17.5834C16.532 17.5804 16.5309 17.5776 16.529 17.5754C16.527 17.5732 16.5243 17.5718 16.5214 17.5715H15.1694Z" fill="#005FBB"/>
<path d="M12.6447 16.8877H13.9955C13.9984 16.8877 14.0011 16.8865 14.0031 16.8845C14.0051 16.8825 14.0062 16.8798 14.0062 16.877C14.0062 16.3851 14.2016 15.9134 14.5494 15.5655C14.8973 15.2177 15.369 15.0223 15.8609 15.0223C16.3528 15.0223 16.8246 15.2177 17.1724 15.5655C17.5202 15.9134 17.7156 16.3851 17.7156 16.877C17.7155 16.8784 17.7156 16.8797 17.716 16.881C17.7164 16.8823 17.7171 16.8835 17.718 16.8845C17.7189 16.8855 17.72 16.8863 17.7212 16.8868C17.7224 16.8874 17.7238 16.8877 17.7251 16.8877H19.0759C19.0775 16.8878 19.0792 16.8877 19.0807 16.8871C19.0822 16.8866 19.0836 16.8858 19.0847 16.8846C19.0859 16.8835 19.0867 16.8821 19.0872 16.8806C19.0878 16.879 19.0879 16.8774 19.0878 16.8758C19.0716 16.0306 18.7244 15.2254 18.1209 14.6333C17.5174 14.0413 16.7057 13.7096 15.8603 13.7096C15.0149 13.7096 14.2032 14.0413 13.5997 14.6333C12.9962 15.2254 12.6491 16.0306 12.6329 16.8758C12.6327 16.8774 12.6329 16.879 12.6334 16.8806C12.6339 16.8821 12.6348 16.8835 12.6359 16.8846C12.6371 16.8858 12.6385 16.8866 12.64 16.8871C12.6415 16.8877 12.6431 16.8878 12.6447 16.8877Z" fill="#005FBB"/>
<path d="M23.804 17.5442H25.1832C25.1598 17.1694 25.0457 16.8058 24.8508 16.4848C24.6558 16.1638 24.3857 15.895 24.0639 15.7015C23.742 15.508 23.3779 15.3955 23.003 15.3739C22.628 15.3522 22.2534 15.422 21.9114 15.5771V14.8674H20.5381V19.3043H21.9114V17.7217C21.908 17.5031 21.9787 17.2898 22.1121 17.1167C22.2455 16.9435 22.4337 16.8207 22.6459 16.7683C22.7732 16.7385 22.9053 16.7353 23.0339 16.7588C23.1625 16.7822 23.2849 16.8319 23.3935 16.9047C23.5022 16.9774 23.5946 17.0718 23.6652 17.1818C23.7358 17.2918 23.7831 17.4152 23.804 17.5442Z" fill="#005FBB"/>
</svg>
